<svg width="14" height="12" viewBox="0 0 14 12" xmlns="http://www.w3.org/2000/svg">
<g id="comment"><path d="M2.39761 8.80462L2.41495 8.6165L2.30356 8.46392C1.69374 7.62859 1.37648 6.66983 1.37648 5.68421C1.37648 2.88275 3.98044 0.5 7.31466 0.5C10.6489 0.5 13.2528 2.88275 13.2528 5.68421C13.2528 8.48567 10.6489 10.8684 7.31466 10.8684C6.46132 10.8684 5.64055 10.7136 4.87121 10.4092L4.64895 10.3212L4.44094 10.439C3.56058 10.9373 2.44699 11.2296 1.74123 11.378C1.85347 11.1691 1.94957 10.9381 2.03145 10.6923C2.2092 10.1587 2.33171 9.5197 2.39761 8.80462Z"/></g>
</svg>
