<svg width="25" height="24" viewBox="0 0 25 24" xmlns="http://www.w3.org/2000/svg">
<g id="filled-star"><path d="M22.0026 8.71772L16.2678 7.88579L13.7047 2.71455C13.2454 1.79279 11.9148 1.78107 11.4516 2.71455L8.88841 7.88579L3.15366 8.71772C2.12525 8.86613 1.7131 10.1277 2.45889 10.8503L6.60786 14.8732L5.62655 20.5561C5.44991 21.5833 6.5372 22.3527 7.44785 21.8723L12.5781 19.1891L17.7084 21.8723C18.6191 22.3488 19.7063 21.5833 19.5297 20.5561L18.5484 14.8732L22.6974 10.8503C23.4432 10.1277 23.031 8.86613 22.0026 8.71772ZM16.5269 14.217L17.4572 19.6226L12.5781 17.0722L7.69907 19.6226L8.62935 14.217L4.68057 10.3894L10.1366 9.60042L12.5781 4.67915L15.0196 9.60042L20.4757 10.3894L16.5269 14.217Z"/>
<path d="M12.5781 3.01883L15.6493 8.29172L21.6132 9.58317L17.5474 14.1334L18.1621 20.2045L12.5781 17.7438L6.99416 20.2045L7.60885 14.1334L3.54309 9.58317L9.50695 8.29172L12.5781 3.01883Z"/></g>
</svg>