<svg width="13" height="12" viewBox="0 0 13 12" xmlns="http://www.w3.org/2000/svg">
<g id="like"><path d="M5.88698 10.5694L5.87607 10.5587L5.86454 10.5487C4.18208 9.08864 2.83126 7.90015 1.89623 6.78415C0.966606 5.67461 0.5 4.69639 0.5 3.66316C0.5 1.99041 1.81221 0.689476 3.541 0.689476C4.48958 0.689476 5.44603 1.13106 6.05956 1.84237L6.43818 2.28131L6.81679 1.84237C7.43032 1.13106 8.38677 0.689476 9.33535 0.689476C11.0641 0.689476 12.3764 1.99041 12.3764 3.66316C12.3764 4.69639 11.9097 5.67461 10.9801 6.78415C10.0451 7.90015 8.69427 9.08864 7.01181 10.5487L7.00028 10.5587L6.98938 10.5694L6.43818 11.1101L5.88698 10.5694Z"/></g>
</svg>
