<svg width="94" height="19" viewBox="0 0 94 19" fill="currentColor" xmlns="http://www.w3.org/2000/svg">
<g id="qsoft"><path fill-rule="evenodd" clip-rule="evenodd" d="M20.2332 17.8842H15.3217L14.6277 16.9766C13.6667 17.3503 12.8126 17.6173 12.0652 17.8308C11.3178 17.991 10.517 18.0977 9.60942 18.0977C6.61982 18.0977 4.27085 17.3503 2.6159 15.9089C0.854171 14.4141 0 12.1185 0 9.18234C0 6.19274 0.800785 3.89715 2.34897 2.34897C3.95054 0.800785 6.35289 0 9.60942 0C12.7592 0 15.1615 0.854171 16.8165 2.50913C18.2579 3.95054 18.9519 5.81904 18.9519 8.06124C18.9519 9.71619 18.8985 10.9441 18.7384 11.6915C18.5248 12.8659 17.991 13.987 17.2436 15.0014L20.2332 17.8842ZM14.6277 9.02218C14.6277 7.42061 14.3074 6.13935 13.6133 5.12502C12.7592 3.84377 11.3711 3.20314 9.55603 3.20314C7.84769 3.20314 6.51305 3.68361 5.65888 4.69794C4.80471 5.65888 4.37762 7.10029 4.37762 8.96879C4.37762 11.0508 4.85809 12.599 5.87242 13.56C6.77998 14.4141 8.11462 14.8412 9.87635 14.8412C11.4779 14.8412 12.6524 14.3607 13.4532 13.3998C14.254 12.3855 14.6277 10.9441 14.6277 9.02218Z" />
<path fill-rule="evenodd" clip-rule="evenodd" d="M38.7585 12.3855C38.7585 13.9337 38.2246 15.2149 37.2103 16.2826C36.196 17.3503 34.9147 17.8308 33.3131 17.8308H21.0344V14.6811H31.2311C31.9251 14.6811 32.5123 14.5209 32.9394 14.2006C33.4733 13.8269 33.7402 13.3464 33.7402 12.7058C33.7402 11.211 32.6725 10.4636 30.5905 10.4636H25.4654C23.9706 10.4636 22.6894 9.98311 21.5683 9.07556C20.4472 8.168 19.9133 6.99352 19.9133 5.55211C19.9133 4.00392 20.4472 2.72267 21.5683 1.76172C22.636 0.800783 24.0774 0.320312 25.8925 0.320312H37.6908V3.30991H27.2272C26.7467 3.30991 26.2662 3.52345 25.8391 3.89715C25.3053 4.27085 25.0917 4.75132 25.0917 5.28518C25.0917 5.87242 25.3053 6.40628 25.7858 6.77998C26.2662 7.20706 26.8001 7.36722 27.4407 7.36722H33.0996C34.8613 7.36722 36.2493 7.84769 37.2637 8.75524C38.278 9.6628 38.7585 10.8907 38.7585 12.3855Z" />
<path fill-rule="evenodd" clip-rule="evenodd" d="M58.9382 9.02226C58.9382 12.4389 57.9773 14.8413 56.1088 16.3361C54.5606 17.5106 52.3184 18.0978 49.4356 18.0978C46.1791 18.0978 43.7767 17.4038 42.2285 16.0692C40.5202 14.5744 39.666 12.172 39.666 8.8621C39.666 6.13943 40.4134 4.004 41.9616 2.50921C43.6166 0.854252 46.0723 0.0534668 49.3822 0.0534668C53.0124 0.0534668 55.5216 0.854252 57.0164 2.40244C58.2976 3.79046 58.9382 5.97927 58.9382 9.02226ZM54.4538 8.91549C54.4538 7.20714 54.0268 5.81912 53.226 4.80479C52.3184 3.68369 50.9304 3.09645 49.1687 3.09645C47.4069 3.09645 46.0723 3.68369 45.1647 4.91156C44.4173 5.92589 44.0436 7.26053 44.0436 8.8621C44.0436 10.7306 44.364 12.1186 44.9512 13.0262C45.8054 14.254 47.3002 14.8947 49.5957 14.8947C51.5176 14.8947 52.8523 14.3074 53.5997 13.0796C54.1869 12.2254 54.4538 10.784 54.4538 8.91549Z" />
<path fill-rule="evenodd" clip-rule="evenodd" d="M76.5015 10.517H64.4363V17.7774H60.1121V7.04691C60.1121 6.40628 60.2188 5.65888 60.4858 4.85809C60.9662 3.41668 61.8738 2.34897 63.2084 1.60157C64.7566 0.747398 67.3191 0.320312 70.8426 0.320312C78.37 0.320312 85.8973 0.320312 93.4247 0.320312V3.25652H86.9117V17.7774H82.8543V3.25652C78.6903 3.25652 74.7397 3.20314 70.5756 3.20314C68.9741 3.20314 67.853 3.30991 67.2124 3.47007C66.0913 3.73699 65.3439 4.37762 64.8634 5.28518C64.4897 5.97919 64.3295 6.72659 64.3295 7.58076H76.5015V10.517Z" /></g>
</svg>
