<svg width="25" height="24" viewBox="0 0 25 24" xmlns="http://www.w3.org/2000/svg">
<g id="star"><path d="M22.0026 8.71768L16.2678 7.88576L13.7047 2.71452C13.2454 1.79276 11.9148 1.78104 11.4516 2.71452L8.88841 7.88576L3.15366 8.71768C2.12525 8.8661 1.7131 10.1277 2.45889 10.8502L6.60786 14.8732L5.62655 20.5561C5.44991 21.5833 6.5372 22.3527 7.44785 21.8723L12.5781 19.189L17.7084 21.8723C18.6191 22.3488 19.7063 21.5833 19.5297 20.5561L18.5484 14.8732L22.6974 10.8502C23.4432 10.1277 23.031 8.8661 22.0026 8.71768ZM16.5269 14.217L17.4572 19.6226L12.5781 17.0721L7.69907 19.6226L8.62935 14.217L4.68057 10.3894L10.1366 9.60039L12.5781 4.67912L15.0196 9.60039L20.4757 10.3894L16.5269 14.217Z"/></g>
</svg>
