<svg width="15" height="8" viewBox="0 0 15 8" xmlns="http://www.w3.org/2000/svg">
<g id="view"><mask id="path-1-inside-1_10165_7232" fill="white">
<path fill-rule="evenodd" clip-rule="evenodd" d="M0.90375 4.48987C0.702656 4.19384 0.702656 3.80616 0.90375 3.51013C2.34287 1.39167 4.7719 0 7.52597 0C10.28 0 12.7091 1.39167 14.1482 3.51014C14.3493 3.80616 14.3493 4.19385 14.1482 4.48987C12.7091 6.60833 10.28 8 7.52597 8C4.7719 8 2.34287 6.60833 0.90375 4.48987Z"/>
</mask>
<path d="M14.1482 3.51014L13.321 4.07206L14.1482 3.51014ZM14.1482 4.48987L13.321 3.92794L14.1482 4.48987ZM1.73094 4.07206C2.99186 2.21591 5.11707 1 7.52597 1V-1C4.42672 -1 1.69388 0.567426 0.0765625 2.94821L1.73094 4.07206ZM7.52597 1C9.93486 1 12.0601 2.21591 13.321 4.07206L14.9754 2.94821C13.3581 0.567429 10.6252 -1 7.52597 -1V1ZM13.321 3.92794C12.0601 5.78409 9.93486 7 7.52597 7V9C10.6252 9 13.3581 7.43257 14.9754 5.05179L13.321 3.92794ZM7.52597 7C5.11707 7 2.99186 5.78409 1.73094 3.92794L0.0765624 5.05179C1.69388 7.43257 4.42672 9 7.52597 9V7ZM13.321 4.07206C13.2917 4.0289 13.2917 3.97111 13.321 3.92794L14.9754 5.05179C15.4069 4.41659 15.4069 3.58342 14.9754 2.94821L13.321 4.07206ZM0.0765625 2.94821C-0.354948 3.58342 -0.354948 4.41658 0.0765624 5.05179L1.73094 3.92794C1.76026 3.9711 1.76026 4.0289 1.73094 4.07206L0.0765625 2.94821Z" fill="#768298" mask="url(#path-1-inside-1_10165_7232)"/>
<circle cx="7.52588" cy="4" r="3.5" stroke="#768298"/>
<circle cx="7.52588" cy="4" r="1" fill="#768298"/></g>
</svg>
