<svg xmlns="http://www.w3.org/2000/svg" xmlns:xlink="http://www.w3.org/1999/xlink"><defs><symbol viewBox="0 0 12 12" id="icon-arrow"><path d="M11.063 6H.937m10.126 0l-4.5 4.5m4.5-4.5l-4.5-4.5" /></symbol><symbol fill="none" viewBox="0 0 6 10" id="icon-arrow-breadspreads"><path clip-rule="evenodd" d="M6 5a.997.997 0 01-.293.707l-4 4A.999.999 0 11.293 8.293l3.305-3.305-3.18-3.293a1 1 0 011.44-1.39l3.861 4A.997.997 0 016 5" /></symbol><symbol fill="none" viewBox="0 0 12 7" id="icon-arrow-select"><path d="M11 1L6 6 1 1" stroke="#6680AE" stroke-width="2" stroke-linecap="round" stroke-linejoin="round" /></symbol><symbol viewBox="0 0 14 12" id="icon-comment"><path d="M2.398 8.805l.017-.188-.111-.153a4.688 4.688 0 01-.928-2.78C1.376 2.883 3.98.5 7.315.5c3.334 0 5.938 2.383 5.938 5.184 0 2.802-2.604 5.184-5.938 5.184a6.606 6.606 0 01-2.444-.459l-.222-.088-.208.118c-.88.498-1.994.79-2.7.939a4.37 4.37 0 00.29-.686c.178-.533.3-1.172.367-1.887z" /></symbol><symbol fill="none" viewBox="0 0 24 24" id="icon-exclamation"><path clip-rule="evenodd" d="M11 16a1 1 0 102 0 1 1 0 00-2 0zm0-3a1 1 0 002 0V8a1 1 0 00-2 0v5zm1-9c-4.411 0-8 3.589-8 8s3.589 8 8 8 8-3.589 8-8-3.589-8-8-8zm0 18C6.477 22 2 17.523 2 12S6.477 2 12 2c5.522 0 10 4.477 10 10s-4.478 10-10 10z" /><g mask="url(#icon-exclamation_a)"><path d="M0 24h24V0H0z" /></g></symbol><mask id="icon-exclamation_a" style="mask-type:alpha" maskUnits="userSpaceOnUse" x="2" y="2" width="20" height="20"><path fill-rule="evenodd" clip-rule="evenodd" d="M11 16a1 1 0 102 0 1 1 0 00-2 0zm0-3a1 1 0 002 0V8a1 1 0 00-2 0v5zm1-9c-4.411 0-8 3.589-8 8s3.589 8 8 8 8-3.589 8-8-3.589-8-8-8zm0 18C6.477 22 2 17.523 2 12S6.477 2 12 2c5.522 0 10 4.477 10 10s-4.478 10-10 10z" fill="#fff" /></mask><symbol fill="currentColor" viewBox="0 0 40 40" id="icon-instagram"><path d="M24.715 10.503c-1.23-.056-1.6-.066-4.715-.066-3.115 0-3.483.011-4.713.066-3.165.145-4.639 1.644-4.784 4.784-.055 1.23-.068 1.598-.068 4.713s.013 3.483.068 4.715c.145 3.132 1.612 4.638 4.784 4.783 1.228.055 1.598.069 4.713.069 3.117 0 3.485-.012 4.715-.069 3.165-.143 4.637-1.646 4.783-4.783.055-1.23.067-1.6.067-4.715 0-3.115-.012-3.483-.067-4.713-.146-3.139-1.621-4.639-4.783-4.784zM20 25.992a5.992 5.992 0 110-11.984 5.992 5.992 0 010 11.984zm6.228-10.819a1.4 1.4 0 110-2.8 1.4 1.4 0 010 2.8zM23.888 20a3.888 3.888 0 11-7.776 0 3.888 3.888 0 017.776 0zM20 0C8.955 0 0 8.955 0 20s8.955 20 20 20 20-8.955 20-20S31.045 0 20 0zm11.597 24.81c-.192 4.242-2.554 6.592-6.785 6.787-1.245.056-1.644.07-4.812.07s-3.565-.014-4.81-.07c-4.24-.195-6.592-2.549-6.787-6.787-.056-1.243-.07-1.642-.07-4.81 0-3.168.014-3.565.07-4.81.195-4.24 2.549-6.592 6.787-6.785 1.245-.058 1.642-.072 4.81-.072 3.168 0 3.567.014 4.812.072 4.241.195 6.595 2.553 6.785 6.785.056 1.245.07 1.642.07 4.81 0 3.168-.014 3.567-.07 4.81z" /></symbol><symbol viewBox="0 0 13 12" id="icon-like"><path d="M5.887 10.57l-.01-.011-.012-.01C4.182 9.089 2.83 7.9 1.896 6.784.966 5.674.5 4.696.5 3.664.5 1.99 1.812.688 3.541.688A3.4 3.4 0 016.06 1.842l.378.44.379-.44A3.4 3.4 0 019.335.69c1.73 0 3.041 1.301 3.041 2.974 0 1.033-.466 2.012-1.396 3.121C10.045 7.9 8.694 9.09 7.012 10.55l-.012.01-.01.01-.552.541-.551-.54z" /></symbol><symbol viewBox="0 0 18 18" id="icon-loupe"><path d="M17 17l-4.904-4.904m0 0a6.5 6.5 0 10-9.192-9.192 6.5 6.5 0 009.192 9.192z" /></symbol><symbol fill="currentColor" viewBox="0 0 94 19" id="icon-qsoft"><g fill-rule="evenodd" clip-rule="evenodd"><path d="M20.233 17.884h-4.911l-.694-.907c-.961.373-1.815.64-2.563.854-.747.16-1.548.267-2.456.267-2.99 0-5.338-.748-6.993-2.19C.854 14.415 0 12.119 0 9.183c0-2.99.8-5.285 2.349-6.833C3.951.801 6.353 0 9.609 0c3.15 0 5.553.854 7.208 2.51 1.44 1.44 2.135 3.309 2.135 5.551 0 1.655-.054 2.883-.214 3.63-.213 1.175-.747 2.296-1.494 3.31l2.99 2.883zm-5.605-8.862c0-1.601-.32-2.883-1.015-3.897-.854-1.281-2.242-1.922-4.057-1.922-1.708 0-3.043.48-3.897 1.495-.854.96-1.281 2.402-1.281 4.27 0 2.083.48 3.631 1.494 4.592.908.854 2.243 1.281 4.004 1.281 1.602 0 2.776-.48 3.577-1.441.801-1.014 1.175-2.456 1.175-4.378zM38.758 12.386c0 1.548-.533 2.829-1.548 3.897-1.014 1.067-2.295 1.548-3.897 1.548H21.034v-3.15h10.197c.694 0 1.281-.16 1.708-.48.534-.374.801-.855.801-1.495 0-1.495-1.068-2.242-3.15-2.242h-5.125c-1.494 0-2.776-.48-3.897-1.388-1.12-.908-1.655-2.082-1.655-3.524 0-1.548.534-2.83 1.655-3.79C22.636.8 24.078.32 25.892.32h11.799v2.99H27.227c-.48 0-.96.213-1.388.587-.534.374-.747.854-.747 1.388 0 .587.213 1.121.694 1.495.48.427 1.014.587 1.655.587H33.1c1.761 0 3.15.48 4.164 1.388 1.014.908 1.494 2.136 1.494 3.63zM58.938 9.022c0 3.417-.96 5.82-2.83 7.314-1.547 1.175-3.79 1.762-6.672 1.762-3.257 0-5.66-.694-7.208-2.029-1.708-1.495-2.562-3.897-2.562-7.207 0-2.723.747-4.858 2.296-6.353C43.617.854 46.072.053 49.382.053c3.63 0 6.14.801 7.634 2.35 1.282 1.387 1.922 3.576 1.922 6.62zm-4.484-.107c0-1.708-.427-3.096-1.228-4.11-.908-1.121-2.296-1.709-4.057-1.709-1.762 0-3.097.588-4.004 1.816-.748 1.014-1.121 2.349-1.121 3.95 0 1.869.32 3.257.907 4.164.854 1.228 2.35 1.869 4.645 1.869 1.922 0 3.256-.588 4.004-1.815.587-.855.854-2.296.854-4.165zM76.501 10.517H64.436v7.26h-4.324V7.047c0-.64.107-1.388.374-2.189.48-1.441 1.388-2.509 2.722-3.256C64.757.747 67.32.32 70.843.32h22.582v2.937h-6.513v14.52h-4.058V3.257c-4.164 0-8.114-.054-12.278-.054-1.602 0-2.723.107-3.364.267-1.12.267-1.868.908-2.349 1.815-.373.694-.534 1.442-.534 2.296h12.172v2.936z" /></g></symbol><symbol fill="none" viewBox="0 0 24 24" id="icon-question"><path clip-rule="evenodd" d="M8.5 9.5C8.5 7.57 10.07 6 12 6s3.5 1.57 3.5 3.5c0 1.58-1.06 2.903-2.5 3.337V14a1 1 0 11-2 0v-2a1 1 0 011-1c.827 0 1.5-.673 1.5-1.5S12.827 8 12 8s-1.5.673-1.5 1.5a1 1 0 11-2 0zM11 17a1 1 0 112 0 1 1 0 11-2 0zm1 3c-4.411 0-8-3.589-8-8s3.589-8 8-8 8 3.589 8 8-3.589 8-8 8zm0-18C6.486 2 2 6.486 2 12s4.486 10 10 10 10-4.486 10-10S17.514 2 12 2z" /></symbol><symbol viewBox="0 0 25 24" id="icon-star"><path d="M22.003 8.718l-5.735-.832-2.563-5.171c-.46-.922-1.79-.934-2.253 0l-2.564 5.17-5.734.833c-1.029.148-1.44 1.41-.695 2.132l4.149 4.023-.981 5.683c-.177 1.027.91 1.797 1.82 1.316l5.131-2.683 5.13 2.683c.911.477 1.998-.289 1.822-1.316l-.982-5.683 4.15-4.023c.745-.722.333-1.984-.695-2.132zm-5.476 5.499l.93 5.406-4.879-2.55-4.879 2.55.93-5.406-3.948-3.828 5.456-.789 2.441-4.92L15.02 9.6l5.456.79-3.95 3.827z" /></symbol><symbol viewBox="0 0 15 8" id="icon-view"><path d="M14.148 3.51l-.827.562.827-.562zm0 .98l-.827-.562.827.562zM1.731 4.072A6.992 6.992 0 017.526 1v-2a8.992 8.992 0 00-7.45 3.948l1.655 1.124zM7.526 1a6.992 6.992 0 015.795 3.072l1.654-1.124A8.992 8.992 0 007.526-1v2zm5.795 2.928A6.992 6.992 0 017.526 7v2c3.1 0 5.832-1.567 7.45-3.948L13.32 3.928zM7.526 7a6.992 6.992 0 01-5.795-3.072L.077 5.052A8.992 8.992 0 007.526 9V7zm5.795-2.928a.13.13 0 010-.144l1.654 1.124a1.871 1.871 0 000-2.104l-1.654 1.124zM.077 2.948a1.87 1.87 0 000 2.104L1.73 3.928a.13.13 0 010 .144L.077 2.948z" fill="#768298" mask="url(#icon-view_a)" /><circle cx="7.526" cy="4" r="3.5" stroke="#768298" /><circle cx="7.526" cy="4" r="1" fill="#768298" /></symbol><mask id="icon-view_a" fill="#fff"><path fill-rule="evenodd" clip-rule="evenodd" d="M.904 4.49a.871.871 0 010-.98A7.992 7.992 0 017.526 0a7.992 7.992 0 016.622 3.51.87.87 0 010 .98A7.992 7.992 0 017.526 8 7.992 7.992 0 01.904 4.49z" /></mask><symbol fill="currentColor" viewBox="0 0 40 40" id="icon-youtube"><path d="M20 0C8.955 0 0 8.955 0 20s8.955 20 20 20 20-8.955 20-20S31.045 0 20 0zm7.402 28.153c-3.504.24-11.307.24-14.805 0-3.794-.26-4.235-2.116-4.264-8.153.029-6.048.475-7.893 4.264-8.153 3.498-.24 11.303-.24 14.805 0 3.795.26 4.235 2.116 4.265 8.153-.03 6.048-.475 7.893-4.265 8.153zM16.667 16.097l8.195 3.896-8.195 3.91v-7.806z" /></symbol></defs></svg>